<?xml version="1.0" ?>
<!-- Uploaded to: SVG Repo, www.svgrepo.com, Generator: SVG Repo Mixer Tools -->
<svg width="800px" height="800px" viewBox="0 0 64 64" xmlns="http://www.w3.org/2000/svg">
<defs>
<style>.cls-1{fill:#f57c00;}.cls-2{fill:#999;}.cls-3{fill:#666;}</style>
</defs>
<title/>
<g data-name="outline color" id="outline_color">
<path class="cls-1" d="M27,55a1,1,0,0,1-.47-.12A1,1,0,0,1,26,54V31a1,1,0,0,1,1-1H50a1,1,0,0,1,1,1V48a1,1,0,0,1-1,1H36.25l-8.69,5.83A1,1,0,0,1,27,55Zm1-23V52.13l7.39-5a1,1,0,0,1,.55-.17H49V32Z"/>
<path class="cls-1" d="M59,60a1,1,0,0,1-.56-.17L49.75,54H36a1,1,0,0,1-1-1v-.22a1,1,0,0,1,1-1,1,1,0,0,1,.63.22H50.06a1,1,0,0,1,.56.17L58,57.12V37H54a1,1,0,0,1,0-2h5a1,1,0,0,1,1,1V59a1,1,0,0,1-.53.88A1,1,0,0,1,59,60Z"/>
<path class="cls-2" d="M21.77,55.1a5,5,0,0,1-4.57-3L4.56,23.83a5,5,0,0,1,2.52-6.6l20.17-9A1,1,0,0,1,28.07,10l-20.17,9a3,3,0,0,0-1.52,4L19,51.32A3,3,0,0,0,22.69,53a1,1,0,1,1,.62,1.9A4.85,4.85,0,0,1,21.77,55.1Z"/>
<path class="cls-3" d="M16.74,22.68a1,1,0,0,1-.92-.6,1,1,0,0,1,.51-1.32l8.21-3.67a1,1,0,1,1,.82,1.83l-8.22,3.67A1,1,0,0,1,16.74,22.68Z"/>
<path class="cls-3" d="M16.44,29.38A1,1,0,0,1,16,27.47l6.78-3a1,1,0,0,1,.82,1.82l-6.78,3A1,1,0,0,1,16.44,29.38Z"/>
<path class="cls-3" d="M18.89,34.85a1,1,0,0,1-.41-1.91l2.29-1a1,1,0,0,1,.82,1.82l-2.29,1A1,1,0,0,1,18.89,34.85Z"/>
<path class="cls-2" d="M23,43.85a.84.84,0,0,1-.27,0l-.39-.11a5,5,0,0,1-3.5-6.13L27,7.67a5,5,0,0,1,6.14-3.51L56.31,10.5a4.9,4.9,0,0,1,3,2.33,5,5,0,0,1,.49,3.8L55.54,32.26a1,1,0,0,1-1.92-.52L57.9,16.11a3,3,0,0,0-.29-2.28,2.94,2.94,0,0,0-1.82-1.4L32.65,6.08A3,3,0,0,0,29,8.2L20.77,38.09a3,3,0,0,0,2.1,3.69l.4.11a1,1,0,0,1-.27,2Z"/>
<path class="cls-3" d="M47.46,17.36a1.24,1.24,0,0,1-.27,0L38.51,15a1,1,0,0,1-.7-1.23A1,1,0,0,1,39,13l8.68,2.38a1,1,0,0,1-.26,2Z"/>
<path class="cls-3" d="M48.77,23.94a1.24,1.24,0,0,1-.27,0L34,20A1,1,0,1,1,34.56,18L49,22a1,1,0,0,1-.26,2Z"/>
<path class="cls-3" d="M40.86,28a.75.75,0,0,1-.26,0l-8.15-2.23A1,1,0,0,1,33,23.81L41.12,26a1,1,0,0,1,.71,1.22A1,1,0,0,1,40.86,28Z"/>
</g>
</svg>